<?xml version="1.0" encoding="utf-8"?>
<svg viewBox="0 0 200 300" xmlns="http://www.w3.org/2000/svg">
  <rect width="200" height="300" style="fill: rgb(216, 216, 216); stroke: rgb(0, 0, 0); stroke-width: 0px;"/>
  <path d="M 116.221 120.462 L 131.154 143.001 L 101.288 143.001 L 116.221 120.462 Z M 90.597 109.919 L 112.515 143.001 L 68.679 143.001 L 90.597 109.919 Z" style="stroke: rgb(0, 0, 0); opacity: 0.6; fill: rgb(255, 255, 255); stroke-width: 0px; paint-order: fill; fill-rule: nonzero;"/>
  <path d="M 45.898 193.204 L 45.898 205.859 L 44.143 205.859 L 37.711 196.578 L 37.593 196.578 L 37.593 205.859 L 35.684 205.859 L 35.684 193.204 L 37.451 193.204 L 43.89 202.498 L 44.007 202.498 L 44.007 193.204 Z" style="fill: rgb(255, 255, 255); white-space: pre;"/>
  <path d="M 52.521 206.051 Q 51.186 206.051 50.192 205.439 Q 49.197 204.827 48.647 203.727 Q 48.097 202.627 48.097 201.157 Q 48.097 199.68 48.647 198.574 Q 49.197 197.468 50.192 196.856 Q 51.186 196.245 52.521 196.245 Q 53.856 196.245 54.85 196.856 Q 55.845 197.468 56.395 198.574 Q 56.945 199.68 56.945 201.157 Q 56.945 202.627 56.395 203.727 Q 55.845 204.827 54.85 205.439 Q 53.856 206.051 52.521 206.051 Z M 52.527 204.5 Q 53.392 204.5 53.961 204.042 Q 54.529 203.585 54.804 202.825 Q 55.079 202.065 55.079 201.151 Q 55.079 200.242 54.804 199.479 Q 54.529 198.716 53.961 198.253 Q 53.392 197.789 52.527 197.789 Q 51.656 197.789 51.084 198.253 Q 50.513 198.716 50.238 199.479 Q 49.963 200.242 49.963 201.151 Q 49.963 202.065 50.238 202.825 Q 50.513 203.585 51.084 204.042 Q 51.656 204.5 52.527 204.5 Z" style="fill: rgb(255, 255, 255); white-space: pre;"/>
  <path d="M 63.611 205.859 L 63.611 196.368 L 65.458 196.368 L 65.458 205.859 Z M 64.544 194.904 Q 64.062 194.904 63.719 194.579 Q 63.376 194.255 63.376 193.804 Q 63.376 193.347 63.719 193.022 Q 64.062 192.698 64.544 192.698 Q 65.026 192.698 65.369 193.022 Q 65.712 193.347 65.712 193.804 Q 65.712 194.255 65.369 194.579 Q 65.026 194.904 64.544 194.904 Z" style="fill: rgb(255, 255, 255); white-space: pre;"/>
  <path d="M 67.948 205.859 L 67.948 196.368 L 69.722 196.368 L 69.722 197.913 L 69.839 197.913 Q 70.136 197.128 70.809 196.686 Q 71.483 196.245 72.422 196.245 Q 73.373 196.245 74.019 196.689 Q 74.665 197.134 74.974 197.913 L 75.073 197.913 Q 75.412 197.153 76.154 196.699 Q 76.895 196.245 77.921 196.245 Q 79.213 196.245 80.031 197.054 Q 80.85 197.863 80.85 199.495 L 80.85 205.859 L 79.002 205.859 L 79.002 199.668 Q 79.002 198.704 78.477 198.271 Q 77.952 197.839 77.223 197.839 Q 76.321 197.839 75.82 198.392 Q 75.32 198.945 75.32 199.81 L 75.32 205.859 L 73.478 205.859 L 73.478 199.55 Q 73.478 198.778 72.996 198.308 Q 72.514 197.839 71.742 197.839 Q 71.217 197.839 70.775 198.114 Q 70.333 198.389 70.065 198.877 Q 69.796 199.365 69.796 200.008 L 69.796 205.859 Z" style="fill: rgb(255, 255, 255); white-space: pre;"/>
  <path d="M 86.085 206.069 Q 85.183 206.069 84.454 205.732 Q 83.725 205.396 83.302 204.753 Q 82.878 204.11 82.878 203.177 Q 82.878 202.374 83.187 201.855 Q 83.496 201.336 84.021 201.033 Q 84.547 200.73 85.195 200.576 Q 85.844 200.421 86.518 200.341 Q 87.37 200.242 87.902 200.177 Q 88.433 200.113 88.674 199.964 Q 88.915 199.816 88.915 199.482 L 88.915 199.439 Q 88.915 198.63 88.461 198.185 Q 88.007 197.74 87.111 197.74 Q 86.178 197.74 85.643 198.151 Q 85.109 198.562 84.905 199.062 L 83.169 198.667 Q 83.478 197.802 84.074 197.267 Q 84.67 196.733 85.449 196.489 Q 86.227 196.245 87.086 196.245 Q 87.655 196.245 88.294 196.377 Q 88.934 196.51 89.493 196.862 Q 90.052 197.215 90.411 197.866 Q 90.769 198.518 90.769 199.556 L 90.769 205.859 L 88.965 205.859 L 88.965 204.561 L 88.89 204.561 Q 88.711 204.92 88.353 205.266 Q 87.995 205.612 87.432 205.84 Q 86.87 206.069 86.085 206.069 Z M 86.487 204.586 Q 87.253 204.586 87.8 204.283 Q 88.347 203.981 88.634 203.489 Q 88.921 202.998 88.921 202.436 L 88.921 201.212 Q 88.823 201.311 88.541 201.395 Q 88.26 201.478 87.902 201.537 Q 87.543 201.595 87.204 201.642 Q 86.864 201.688 86.635 201.719 Q 86.098 201.787 85.656 201.948 Q 85.214 202.108 84.951 202.408 Q 84.689 202.708 84.689 203.202 Q 84.689 203.888 85.195 204.237 Q 85.702 204.586 86.487 204.586 Z" style="fill: rgb(255, 255, 255); white-space: pre;"/>
  <path d="M 97.202 209.616 Q 96.072 209.616 95.259 209.319 Q 94.447 209.023 93.934 208.534 Q 93.421 208.046 93.168 207.466 L 94.756 206.811 Q 94.922 207.082 95.204 207.388 Q 95.485 207.694 95.97 207.91 Q 96.455 208.127 97.221 208.127 Q 98.271 208.127 98.957 207.617 Q 99.643 207.107 99.643 205.995 L 99.643 204.129 L 99.526 204.129 Q 99.359 204.432 99.047 204.802 Q 98.735 205.173 98.191 205.445 Q 97.647 205.717 96.776 205.717 Q 95.652 205.717 94.753 205.189 Q 93.853 204.66 93.331 203.625 Q 92.809 202.59 92.809 201.076 Q 92.809 199.563 93.325 198.481 Q 93.841 197.4 94.743 196.822 Q 95.645 196.245 96.788 196.245 Q 97.672 196.245 98.216 196.538 Q 98.76 196.832 99.065 197.221 Q 99.371 197.61 99.538 197.907 L 99.674 197.907 L 99.674 196.368 L 101.485 196.368 L 101.485 206.069 Q 101.485 207.293 100.916 208.077 Q 100.348 208.862 99.381 209.239 Q 98.414 209.616 97.202 209.616 Z M 97.184 204.184 Q 97.981 204.184 98.534 203.811 Q 99.087 203.437 99.374 202.736 Q 99.662 202.034 99.662 201.052 Q 99.662 200.094 99.377 199.365 Q 99.093 198.636 98.543 198.225 Q 97.993 197.814 97.184 197.814 Q 96.35 197.814 95.794 198.243 Q 95.238 198.673 94.956 199.408 Q 94.675 200.143 94.675 201.052 Q 94.675 201.985 94.96 202.689 Q 95.244 203.394 95.803 203.789 Q 96.362 204.184 97.184 204.184 Z" style="fill: rgb(255, 255, 255); white-space: pre;"/>
  <path d="M 108.051 206.051 Q 106.649 206.051 105.638 205.448 Q 104.628 204.846 104.081 203.749 Q 103.534 202.652 103.534 201.175 Q 103.534 199.717 104.081 198.605 Q 104.628 197.493 105.614 196.869 Q 106.599 196.245 107.921 196.245 Q 108.725 196.245 109.479 196.51 Q 110.232 196.776 110.832 197.344 Q 111.431 197.913 111.777 198.818 Q 112.123 199.723 112.123 201.015 L 112.123 201.67 L 104.579 201.67 L 104.579 200.286 L 110.313 200.286 Q 110.313 199.556 110.016 198.991 Q 109.72 198.426 109.185 198.098 Q 108.651 197.771 107.934 197.771 Q 107.155 197.771 106.578 198.151 Q 106 198.531 105.688 199.139 Q 105.376 199.748 105.376 200.459 L 105.376 201.54 Q 105.376 202.491 105.712 203.159 Q 106.049 203.826 106.655 204.175 Q 107.26 204.524 108.07 204.524 Q 108.595 204.524 109.027 204.373 Q 109.46 204.222 109.775 203.919 Q 110.09 203.616 110.257 203.171 L 112.006 203.486 Q 111.796 204.259 111.255 204.836 Q 110.714 205.414 109.902 205.732 Q 109.089 206.051 108.051 206.051 Z" style="fill: rgb(255, 255, 255); white-space: pre;"/>
  <path d="M 123.303 196.368 L 123.303 197.851 L 117.939 197.851 L 117.939 196.368 Z M 119.41 205.859 L 119.41 195.268 Q 119.41 194.378 119.799 193.788 Q 120.188 193.198 120.831 192.905 Q 121.474 192.611 122.227 192.611 Q 122.784 192.611 123.179 192.701 Q 123.574 192.79 123.766 192.865 L 123.333 194.36 Q 123.204 194.323 123 194.27 Q 122.796 194.218 122.505 194.218 Q 121.832 194.218 121.545 194.551 Q 121.257 194.885 121.257 195.515 L 121.257 205.859 Z" style="fill: rgb(255, 255, 255); white-space: pre;"/>
  <path d="M 128.834 206.051 Q 127.499 206.051 126.504 205.439 Q 125.509 204.827 124.959 203.727 Q 124.409 202.627 124.409 201.157 Q 124.409 199.68 124.959 198.574 Q 125.509 197.468 126.504 196.856 Q 127.499 196.245 128.834 196.245 Q 130.168 196.245 131.163 196.856 Q 132.158 197.468 132.708 198.574 Q 133.258 199.68 133.258 201.157 Q 133.258 202.627 132.708 203.727 Q 132.158 204.827 131.163 205.439 Q 130.168 206.051 128.834 206.051 Z M 128.84 204.5 Q 129.705 204.5 130.273 204.042 Q 130.842 203.585 131.117 202.825 Q 131.392 202.065 131.392 201.151 Q 131.392 200.242 131.117 199.479 Q 130.842 198.716 130.273 198.253 Q 129.705 197.789 128.84 197.789 Q 127.968 197.789 127.397 198.253 Q 126.825 198.716 126.55 199.479 Q 126.275 200.242 126.275 201.151 Q 126.275 202.065 126.55 202.825 Q 126.825 203.585 127.397 204.042 Q 127.968 204.5 128.84 204.5 Z" style="fill: rgb(255, 255, 255); white-space: pre;"/>
  <path d="M 141.323 201.923 L 141.323 196.368 L 143.177 196.368 L 143.177 205.859 L 141.36 205.859 L 141.36 204.215 L 141.261 204.215 Q 140.934 204.975 140.214 205.479 Q 139.494 205.983 138.425 205.983 Q 137.51 205.983 136.809 205.578 Q 136.108 205.173 135.709 204.376 Q 135.311 203.579 135.311 202.405 L 135.311 196.368 L 137.158 196.368 L 137.158 202.183 Q 137.158 203.153 137.696 203.727 Q 138.233 204.302 139.092 204.302 Q 139.611 204.302 140.127 204.042 Q 140.643 203.783 140.986 203.258 Q 141.329 202.732 141.323 201.923 Z" style="fill: rgb(255, 255, 255); white-space: pre;"/>
  <path d="M 147.508 200.224 L 147.508 205.859 L 145.661 205.859 L 145.661 196.368 L 147.434 196.368 L 147.434 197.913 L 147.551 197.913 Q 147.879 197.159 148.58 196.702 Q 149.282 196.245 150.351 196.245 Q 151.321 196.245 152.05 196.649 Q 152.779 197.054 153.181 197.851 Q 153.582 198.648 153.582 199.822 L 153.582 205.859 L 151.735 205.859 L 151.735 200.045 Q 151.735 199.013 151.197 198.429 Q 150.66 197.845 149.72 197.845 Q 149.078 197.845 148.58 198.123 Q 148.083 198.401 147.796 198.935 Q 147.508 199.47 147.508 200.224 Z" style="fill: rgb(255, 255, 255); white-space: pre;"/>
  <path d="M 159.601 206.044 Q 158.452 206.044 157.553 205.454 Q 156.654 204.864 156.144 203.767 Q 155.634 202.671 155.634 201.132 Q 155.634 199.594 156.15 198.5 Q 156.666 197.406 157.568 196.825 Q 158.47 196.245 159.614 196.245 Q 160.497 196.245 161.038 196.538 Q 161.578 196.832 161.878 197.221 Q 162.178 197.61 162.345 197.907 L 162.456 197.907 L 162.456 193.204 L 164.303 193.204 L 164.303 205.859 L 162.499 205.859 L 162.499 204.382 L 162.345 204.382 Q 162.178 204.685 161.866 205.074 Q 161.554 205.464 161.01 205.754 Q 160.466 206.044 159.601 206.044 Z M 160.009 204.469 Q 160.806 204.469 161.359 204.045 Q 161.912 203.622 162.199 202.868 Q 162.487 202.115 162.487 201.114 Q 162.487 200.125 162.202 199.383 Q 161.918 198.642 161.368 198.228 Q 160.818 197.814 160.009 197.814 Q 159.175 197.814 158.619 198.246 Q 158.063 198.679 157.781 199.427 Q 157.5 200.174 157.5 201.114 Q 157.5 202.065 157.785 202.825 Q 158.069 203.585 158.628 204.027 Q 159.187 204.469 160.009 204.469 Z" style="fill: rgb(255, 255, 255); white-space: pre;"/>
  <rect style="fill: rgb(216, 216, 216); stroke: rgb(255, 255, 255); stroke-width: 6px; fill-opacity: 0;" x="60.828" width="78.344" height="78.344" rx="7" ry="7" y="72"/>
</svg>